<?xml version="1.0" encoding="utf-8"?>
<!-- Generator: Adobe Illustrator 26.3.1, SVG Export Plug-In . SVG Version: 6.00 Build 0)  -->
<svg version="1.1" id="Layer_1" xmlns="http://www.w3.org/2000/svg" xmlns:xlink="http://www.w3.org/1999/xlink" x="0px" y="0px"
	 viewBox="0 0 850.73 280.47" style="enable-background:new 0 0 850.73 280.47;" xml:space="preserve">
<style type="text/css">
	.st0{fill:#008A60;}
	.st1{fill:#414141;}
</style>
<g>
	<g>
		<path class="st0" d="M355.78,45.23v37h1.83c5.81,0,10.03-1.81,12.64-5.43s4.28-8.96,5-16.02h2.57v47.59h-2.57
			c-0.54-5.18-1.68-9.43-3.41-12.73c-1.74-3.31-3.75-5.53-6.05-6.67s-5.63-1.71-10-1.71v25.6c0,5,0.21,8.07,0.64,9.18
			c0.43,1.12,1.23,2.03,2.4,2.75c1.17,0.72,3.06,1.07,5.68,1.07h5.48c8.56,0,15.42-1.97,20.58-5.9c5.16-3.93,8.87-9.92,11.12-17.96
			h2.5l-4.12,28.89h-79.22v-2.48h3.04c2.66,0,4.8-0.47,6.42-1.41c1.17-0.63,2.07-1.7,2.7-3.22c0.5-1.07,0.74-3.89,0.74-8.44V55.56
			c0-4.11-0.11-6.64-0.34-7.57c-0.45-1.56-1.28-2.77-2.5-3.62c-1.71-1.25-4.06-1.88-7.03-1.88h-3.04v-2.48h76.72v26.88h-2.57
			c-1.31-6.57-3.14-11.28-5.51-14.14c-2.37-2.86-5.71-4.96-10.04-6.3c-2.52-0.8-7.26-1.21-14.2-1.21h-9.46V45.23z"/>
		<path class="st0" d="M413.65,40.01h47.32v2.48h-2.37c-3.56,0-6.01,0.37-7.33,1.11c-1.33,0.74-2.28,1.75-2.84,3.05
			s-0.84,4.54-0.84,9.72v44.5c0,8.13,0.62,13.52,1.86,16.15c1.24,2.64,3.28,4.83,6.12,6.57c2.84,1.74,6.42,2.61,10.75,2.61
			c4.96,0,9.18-1.11,12.67-3.32c3.49-2.21,6.11-5.26,7.84-9.15c1.73-3.89,2.6-10.66,2.6-20.31V56.36c0-4.07-0.43-6.97-1.28-8.71
			c-0.86-1.74-1.94-2.95-3.24-3.62c-2.03-1.03-4.89-1.54-8.58-1.54v-2.48h31.7v2.48h-1.89c-2.57,0-4.71,0.51-6.42,1.54
			c-1.71,1.03-2.95,2.57-3.72,4.62c-0.59,1.43-0.88,4-0.88,7.71v34.52c0,10.68-0.71,18.39-2.13,23.12
			c-1.42,4.74-4.88,9.09-10.38,13.07c-5.5,3.98-13,5.96-22.51,5.96c-7.93,0-14.06-1.05-18.39-3.15c-5.9-2.86-10.07-6.52-12.51-10.99
			c-2.43-4.47-3.65-10.48-3.65-18.03v-44.5c0-5.23-0.29-8.48-0.88-9.75s-1.6-2.29-3.04-3.05c-1.44-0.76-4.1-1.12-7.98-1.07
			L413.65,40.01L413.65,40.01z"/>
		<path class="st0" d="M602.78,37.93v31.5h-2.64c-1.98-8.22-5.68-14.52-11.09-18.9c-5.41-4.38-11.54-6.57-18.39-6.57
			c-5.72,0-10.97,1.63-15.75,4.89s-8.27,7.53-10.48,12.8c-2.84,6.75-4.26,14.25-4.26,22.52c0,8.13,1.04,15.54,3.11,22.22
			s5.32,11.73,9.73,15.15c4.42,3.42,10.14,5.13,17.17,5.13c5.77,0,11.05-1.25,15.85-3.75s9.86-6.81,15.18-12.94v7.84
			c-5.14,5.32-10.49,9.17-16.05,11.56c-5.57,2.39-12.07,3.59-19.5,3.59c-9.78,0-18.47-1.94-26.06-5.83
			c-7.59-3.89-13.45-9.47-17.58-16.76c-4.12-7.28-6.18-15.04-6.18-23.26c0-8.67,2.29-16.89,6.86-24.66
			c4.57-7.77,10.75-13.81,18.52-18.1s16.03-6.43,24.77-6.43c6.44,0,13.25,1.39,20.42,4.16c4.15,1.61,6.78,2.41,7.91,2.41
			c1.44,0,2.69-0.52,3.75-1.58c1.06-1.05,1.75-2.71,2.06-4.99H602.78z"/>
		<path class="st0" d="M697.76,98.99l-3.45,31.9h-81.39v-2.48h3.04c2.66,0,4.8-0.47,6.42-1.41c1.17-0.63,2.07-1.7,2.7-3.22
			c0.5-1.07,0.74-3.89,0.74-8.44V55.56c0-4.65-0.25-7.55-0.74-8.71c-0.5-1.16-1.5-2.18-3.01-3.05s-3.55-1.31-6.12-1.31h-3.04v-2.48
			h48.87v2.48h-3.99c-2.66,0-4.8,0.47-6.42,1.41c-1.17,0.63-2.1,1.7-2.77,3.22c-0.5,1.07-0.74,3.89-0.74,8.44v57.91
			c0,4.65,0.27,7.61,0.81,8.88s1.6,2.22,3.18,2.85c1.13,0.4,3.85,0.6,8.18,0.6h7.64c4.87,0,8.92-0.85,12.17-2.55
			c3.25-1.7,6.05-4.38,8.42-8.04s4.61-9.07,6.73-16.22L697.76,98.99L697.76,98.99z"/>
		<path class="st0" d="M753.39,128.41v2.48h-47.93v-2.48h3.04c2.66,0,4.8-0.47,6.42-1.41c1.17-0.63,2.07-1.7,2.7-3.22
			c0.5-1.07,0.74-3.89,0.74-8.44V55.56c0-4.65-0.25-7.55-0.74-8.71c-0.5-1.16-1.5-2.18-3.01-3.05s-3.55-1.31-6.12-1.31h-3.04v-2.48
			h47.93v2.48h-3.04c-2.66,0-4.8,0.47-6.42,1.41c-1.17,0.63-2.1,1.7-2.77,3.22c-0.5,1.07-0.74,3.89-0.74,8.44v59.78
			c0,4.65,0.26,7.55,0.78,8.71s1.53,2.18,3.04,3.05s3.55,1.31,6.12,1.31H753.39z"/>
		<path class="st0" d="M758.39,130.89v-2.48h3.04c2.66,0,4.7-0.41,6.12-1.24s2.47-1.95,3.14-3.38c0.41-0.94,0.61-3.75,0.61-8.44
			V55.57c0-4.65-0.25-7.55-0.74-8.71c-0.5-1.16-1.5-2.18-3.01-3.05s-3.55-1.31-6.12-1.31h-3.04v-2.48h41.03
			c10.95,0,19.76,1.47,26.43,4.42c8.16,3.62,14.34,9.09,18.56,16.42c4.21,7.33,6.32,15.62,6.32,24.87c0,6.39-1.04,12.28-3.11,17.66
			s-4.76,9.83-8.04,13.34c-3.29,3.51-7.09,6.32-11.39,8.44s-9.57,3.76-15.78,4.93c-2.75,0.54-7.08,0.8-12.98,0.8h-41.04V130.89z
			 M793.34,45.17v70.91c0,3.75,0.18,6.06,0.54,6.9c0.36,0.85,0.97,1.5,1.82,1.94c1.22,0.67,2.97,1.01,5.27,1.01
			c7.53,0,13.27-2.55,17.24-7.64c5.41-6.88,8.11-17.56,8.11-32.04c0-11.66-1.85-20.98-5.54-27.95c-2.93-5.45-6.69-9.16-11.29-11.13
			C806.25,45.79,800.87,45.12,793.34,45.17z"/>
	</g>
	<g>
		<path class="st1" d="M328.53,166.06v12.44h6.17c1.42,0,2.45-0.29,3.11-0.88c0.66-0.58,1.09-1.74,1.31-3.47h0.92v10.72h-0.92
			c-0.02-1.23-0.19-2.13-0.51-2.71s-0.77-1.01-1.35-1.3s-1.43-0.43-2.56-0.43h-6.17v9.95c0,1.6,0.11,2.66,0.32,3.18
			c0.17,0.39,0.52,0.72,1.05,1c0.73,0.37,1.5,0.56,2.3,0.56h1.22v0.86h-14.54v-0.86h1.2c1.4,0,2.41-0.38,3.05-1.14
			c0.4-0.5,0.6-1.7,0.6-3.6v-20.45c0-1.6-0.11-2.66-0.32-3.17c-0.17-0.39-0.51-0.72-1.02-1c-0.72-0.37-1.48-0.56-2.3-0.56h-1.2
			v-0.86h25.2l0.33,6.96h-0.87c-0.43-1.48-0.94-2.56-1.51-3.26c-0.57-0.69-1.28-1.19-2.12-1.51c-0.84-0.31-2.14-0.47-3.91-0.47
			L328.53,166.06L328.53,166.06z"/>
		<path class="st1" d="M362.3,195.12v0.86h-14.51v-0.86h1.2c1.4,0,2.41-0.38,3.05-1.14c0.4-0.5,0.6-1.7,0.6-3.6v-20.45
			c0-1.6-0.11-2.66-0.32-3.17c-0.17-0.39-0.51-0.72-1.02-1c-0.73-0.37-1.5-0.56-2.3-0.56h-1.2v-0.86h14.51v0.86h-1.22
			c-1.38,0-2.39,0.38-3.02,1.14c-0.42,0.5-0.62,1.7-0.62,3.6v20.45c0,1.6,0.11,2.66,0.33,3.18c0.17,0.39,0.52,0.72,1.05,1
			c0.72,0.37,1.47,0.56,2.27,0.56h1.2V195.12z"/>
		<path class="st1" d="M362.87,164.33h9.19l20.71,23.74v-18.26c0-1.95-0.23-3.16-0.7-3.64c-0.62-0.65-1.59-0.98-2.92-0.98h-1.17
			v-0.86h11.79v0.86h-1.2c-1.43,0-2.45,0.4-3.05,1.21c-0.37,0.5-0.55,1.63-0.55,3.41v26.68h-0.9L371.74,171v19.49
			c0,1.95,0.23,3.16,0.67,3.64c0.63,0.65,1.61,0.98,2.92,0.98h1.2v0.86h-11.79v-0.86h1.17c1.45,0,2.47-0.41,3.07-1.21
			c0.37-0.5,0.55-1.63,0.55-3.41v-22c-0.98-1.07-1.73-1.78-2.24-2.12c-0.51-0.34-1.25-0.66-2.24-0.96c-0.48-0.14-1.22-0.21-2.2-0.21
			v-0.87H362.87z"/>
		<path class="st1" d="M423.89,185.39h-13.11l-2.3,5c-0.57,1.23-0.85,2.15-0.85,2.75c0,0.48,0.25,0.91,0.74,1.27
			c0.49,0.37,1.55,0.6,3.18,0.71v0.86h-10.67v-0.86c1.42-0.23,2.33-0.54,2.75-0.91c0.85-0.75,1.79-2.26,2.82-4.55l11.91-26.05h0.88
			l11.79,26.33c0.95,2.12,1.81,3.49,2.58,4.12s1.85,0.98,3.23,1.06v0.86h-13.36v-0.86c1.35-0.06,2.26-0.27,2.73-0.63
			s0.71-0.79,0.71-1.31c0-0.68-0.33-1.77-1-3.25L423.89,185.39z M423.19,183.66l-5.75-12.79l-5.89,12.79H423.19z"/>
		<path class="st1" d="M436.76,164.33h9.19l20.71,23.74v-18.26c0-1.95-0.23-3.16-0.7-3.64c-0.62-0.65-1.59-0.98-2.92-0.98h-1.17
			v-0.86h11.79v0.86h-1.2c-1.43,0-2.45,0.4-3.05,1.21c-0.37,0.5-0.55,1.63-0.55,3.41v26.68h-0.9L445.63,171v19.49
			c0,1.95,0.23,3.16,0.67,3.64c0.63,0.65,1.61,0.98,2.92,0.98h1.2v0.86h-11.79v-0.86h1.17c1.45,0,2.47-0.41,3.07-1.21
			c0.37-0.5,0.55-1.63,0.55-3.41v-22c-0.98-1.07-1.73-1.78-2.24-2.12c-0.51-0.34-1.25-0.66-2.24-0.96c-0.48-0.14-1.22-0.21-2.2-0.21
			v-0.87H436.76z"/>
		<path class="st1" d="M505.17,163.61l0.77,10.76h-0.77c-1.03-3.22-2.51-5.54-4.42-6.96c-1.92-1.42-4.21-2.12-6.89-2.12
			c-2.25,0-4.28,0.53-6.09,1.6c-1.81,1.07-3.24,2.77-4.28,5.1c-1.04,2.33-1.56,5.24-1.56,8.71c0,2.86,0.49,5.35,1.47,7.45
			c0.98,2.1,2.46,3.71,4.43,4.83s4.23,1.68,6.76,1.68c2.2,0,4.14-0.44,5.82-1.32s3.53-2.63,5.55-5.24l0.77,0.47
			c-1.7,2.82-3.68,4.88-5.95,6.19s-4.95,1.96-8.07,1.96c-5.61,0-9.96-1.95-13.04-5.84c-2.3-2.9-3.45-6.3-3.45-10.23
			c0-3.16,0.76-6.06,2.27-8.71c1.52-2.65,3.6-4.7,6.26-6.15c2.66-1.46,5.56-2.18,8.71-2.18c2.45,0,4.86,0.56,7.24,1.68
			c0.7,0.34,1.2,0.51,1.5,0.51c0.45,0,0.84-0.15,1.17-0.44c0.43-0.42,0.74-1,0.92-1.75L505.17,163.61L505.17,163.61z"/>
		<path class="st1" d="M524.28,195.12v0.86h-14.51v-0.86h1.2c1.4,0,2.41-0.38,3.05-1.14c0.4-0.5,0.6-1.7,0.6-3.6v-20.45
			c0-1.6-0.11-2.66-0.32-3.17c-0.17-0.39-0.51-0.72-1.02-1c-0.73-0.37-1.5-0.56-2.3-0.56h-1.2v-0.86h14.51v0.86h-1.22
			c-1.38,0-2.39,0.38-3.02,1.14c-0.42,0.5-0.62,1.7-0.62,3.6v20.45c0,1.6,0.11,2.66,0.33,3.18c0.17,0.39,0.52,0.72,1.05,1
			c0.72,0.37,1.47,0.56,2.27,0.56h1.2V195.12z"/>
		<path class="st1" d="M548.93,185.39h-13.11l-2.3,5c-0.57,1.23-0.85,2.15-0.85,2.75c0,0.48,0.25,0.91,0.74,1.27
			c0.49,0.37,1.55,0.6,3.18,0.71v0.86h-10.67v-0.86c1.42-0.23,2.33-0.54,2.75-0.91c0.85-0.75,1.79-2.26,2.82-4.55l11.91-26.05h0.88
			l11.79,26.33c0.95,2.12,1.81,3.49,2.58,4.12s1.85,0.98,3.23,1.06v0.86h-13.36v-0.86c1.35-0.06,2.26-0.27,2.73-0.63
			s0.71-0.79,0.71-1.31c0-0.68-0.33-1.77-1-3.25L548.93,185.39z M548.23,183.66l-5.75-12.79l-5.89,12.79H548.23z"/>
	</g>
	<g>
		<path class="st1" d="M591.79,187.23l0.82,0.16l-2.9,8.59h-26.23v-0.86h1.27c1.43,0,2.46-0.44,3.07-1.31
			c0.35-0.5,0.52-1.65,0.52-3.46v-20.43c0-1.98-0.23-3.21-0.7-3.71c-0.65-0.68-1.62-1.03-2.9-1.03h-1.27v-0.86h15.34v0.86
			c-1.8-0.02-3.06,0.14-3.78,0.47c-0.72,0.33-1.22,0.74-1.49,1.24s-0.4,1.69-0.4,3.57v19.89c0,1.29,0.13,2.18,0.4,2.66
			c0.2,0.33,0.51,0.57,0.92,0.72c0.42,0.16,1.71,0.23,3.9,0.23h2.47c2.6,0,4.42-0.18,5.47-0.54s2.01-0.99,2.87-1.9
			C590.06,190.63,590.93,189.19,591.79,187.23z"/>
	</g>
	<g>
		<path class="st1" d="M628.07,163.61v10.95h-0.92c-0.3-2.1-0.84-3.77-1.61-5.02s-1.88-2.23-3.31-2.97c-1.43-0.73-2.91-1.1-4.45-1.1
			c-1.73,0-3.16,0.49-4.3,1.48c-1.13,0.99-1.7,2.11-1.7,3.37c0,0.97,0.36,1.84,1.07,2.64c1.03,1.17,3.49,2.72,7.37,4.67
			c3.16,1.59,5.32,2.81,6.48,3.65c1.16,0.85,2.05,1.85,2.67,3s0.94,2.36,0.94,3.62c0,2.4-1,4.46-2.99,6.2s-4.55,2.6-7.68,2.6
			c-0.98,0-1.91-0.07-2.77-0.21c-0.52-0.08-1.59-0.36-3.21-0.85s-2.65-0.74-3.08-0.74c-0.42,0-0.75,0.12-0.99,0.35
			s-0.42,0.72-0.54,1.45h-0.92v-10.86h0.92c0.43,2.27,1.02,3.97,1.75,5.1s1.85,2.07,3.36,2.81s3.16,1.12,4.96,1.12
			c2.08,0,3.73-0.51,4.93-1.54c1.21-1.03,1.81-2.24,1.81-3.64c0-0.78-0.23-1.56-0.69-2.36s-1.17-1.53-2.14-2.22
			c-0.65-0.47-2.42-1.46-5.32-2.98s-4.96-2.73-6.18-3.63s-2.15-1.9-2.79-2.99c-0.63-1.09-0.95-2.29-0.95-3.6
			c0-2.27,0.93-4.23,2.8-5.87c1.86-1.64,4.24-2.46,7.12-2.46c1.8,0,3.71,0.41,5.72,1.24c0.93,0.39,1.59,0.58,1.97,0.58
			c0.43,0,0.79-0.12,1.06-0.36s0.5-0.73,0.66-1.46h0.95V163.61z"/>
		<path class="st1" d="M643.75,166.06v12.51h7.45c1.93,0,3.22-0.27,3.87-0.82c0.87-0.72,1.35-1.98,1.45-3.78h0.92v11.02h-0.92
			c-0.23-1.54-0.47-2.53-0.7-2.96c-0.3-0.54-0.79-0.97-1.47-1.28c-0.68-0.31-1.73-0.47-3.15-0.47h-7.44v10.44
			c0,1.4,0.07,2.25,0.2,2.56c0.13,0.3,0.37,0.54,0.7,0.72s0.97,0.27,1.9,0.27h5.74c1.92,0,3.31-0.12,4.17-0.37
			c0.87-0.25,1.7-0.74,2.5-1.47c1.03-0.96,2.09-2.42,3.17-4.37h1l-2.92,7.94h-26.1v-0.86h1.2c0.8,0,1.56-0.18,2.27-0.54
			c0.53-0.25,0.9-0.62,1.09-1.12s0.29-1.52,0.29-3.06v-20.57c0-2.01-0.22-3.25-0.65-3.71c-0.6-0.62-1.6-0.93-3-0.93h-1.2v-0.86h26.1
			l0.38,6.93h-0.97c-0.35-1.67-0.74-2.81-1.16-3.43s-1.05-1.1-1.89-1.42c-0.67-0.23-1.84-0.35-3.52-0.35h-9.31V166.06z"/>
	</g>
	<g>
		<path class="st1" d="M698.88,195.99h-9.04l-11.46-14.8c-0.85,0.03-1.54,0.05-2.07,0.05c-0.22,0-0.45,0-0.7-0.01
			s-0.51-0.02-0.77-0.03v9.2c0,1.99,0.23,3.23,0.7,3.71c0.63,0.68,1.58,1.03,2.85,1.03h1.32V196H665.2v-0.86h1.27
			c1.43,0,2.46-0.44,3.07-1.31c0.35-0.48,0.52-1.63,0.52-3.43v-20.45c0-1.99-0.23-3.23-0.7-3.71c-0.65-0.68-1.62-1.03-2.9-1.03
			h-1.27v-0.86h12.34c3.6,0,6.25,0.25,7.96,0.74s3.16,1.39,4.35,2.71s1.79,2.88,1.79,4.7c0,1.95-0.68,3.63-2.04,5.07
			c-1.36,1.43-3.46,2.44-6.31,3.04l6.99,9.08c1.6,2.09,2.97,3.47,4.12,4.16s2.65,1.12,4.5,1.31L698.88,195.99L698.88,195.99z
			 M674.82,179.71c0.32,0,0.59,0,0.82,0.01s0.42,0.01,0.57,0.01c3.23,0,5.67-0.65,7.31-1.96s2.46-2.97,2.46-5
			c0-1.98-0.66-3.58-1.99-4.82c-1.32-1.24-3.08-1.86-5.26-1.86c-0.97,0-2.27,0.15-3.92,0.44L674.82,179.71L674.82,179.71z"/>
	</g>
	<g>
		<path class="st1" d="M730.65,164.33v0.86c-1.2,0.2-2.11,0.56-2.72,1.07c-0.88,0.76-1.67,1.93-2.35,3.5l-11.81,26.94h-0.92
			l-12.69-27.29c-0.65-1.4-1.11-2.26-1.37-2.57c-0.42-0.48-0.93-0.86-1.54-1.13s-1.43-0.45-2.46-0.52v-0.86h13.84v0.86
			c-1.57,0.14-2.58,0.39-3.05,0.75c-0.47,0.36-0.7,0.82-0.7,1.38c0,0.78,0.38,1.99,1.15,3.64l8.62,18.56l7.99-18.33
			c0.78-1.81,1.17-3.06,1.17-3.76c0-0.45-0.24-0.88-0.72-1.3c-0.48-0.41-1.3-0.7-2.45-0.88c-0.08-0.02-0.22-0.04-0.42-0.07v-0.86
			h10.43V164.33z"/>
		<path class="st1" d="M747.06,195.12v0.86h-14.51v-0.86h1.2c1.4,0,2.41-0.38,3.05-1.14c0.4-0.5,0.6-1.7,0.6-3.6v-20.45
			c0-1.6-0.11-2.66-0.32-3.17c-0.17-0.39-0.51-0.72-1.02-1c-0.73-0.37-1.5-0.56-2.3-0.56h-1.2v-0.86h14.51v0.86h-1.22
			c-1.38,0-2.39,0.38-3.02,1.14c-0.42,0.5-0.62,1.7-0.62,3.6v20.45c0,1.6,0.11,2.66,0.33,3.18c0.17,0.39,0.52,0.72,1.05,1
			c0.72,0.37,1.47,0.56,2.27,0.56h1.2V195.12z"/>
		<path class="st1" d="M779.11,163.61l0.77,10.76h-0.77c-1.03-3.22-2.51-5.54-4.42-6.96c-1.92-1.42-4.21-2.12-6.89-2.12
			c-2.25,0-4.28,0.53-6.09,1.6c-1.81,1.07-3.24,2.77-4.28,5.1c-1.04,2.33-1.56,5.24-1.56,8.71c0,2.86,0.49,5.35,1.47,7.45
			c0.98,2.1,2.46,3.71,4.43,4.83c1.97,1.12,4.23,1.68,6.76,1.68c2.2,0,4.14-0.44,5.82-1.32c1.68-0.88,3.53-2.63,5.55-5.24l0.77,0.47
			c-1.7,2.82-3.68,4.88-5.95,6.19s-4.95,1.96-8.07,1.96c-5.61,0-9.96-1.95-13.04-5.84c-2.3-2.9-3.45-6.3-3.45-10.23
			c0-3.16,0.76-6.06,2.27-8.71c1.52-2.65,3.6-4.7,6.26-6.15c2.66-1.46,5.56-2.18,8.71-2.18c2.45,0,4.86,0.56,7.24,1.68
			c0.7,0.34,1.2,0.51,1.5,0.51c0.45,0,0.84-0.15,1.17-0.44c0.43-0.42,0.74-1,0.92-1.75L779.11,163.61L779.11,163.61z"/>
		<path class="st1" d="M793.12,166.06v12.51h7.44c1.93,0,3.22-0.27,3.87-0.82c0.87-0.72,1.35-1.98,1.45-3.78h0.92v11.02h-0.92
			c-0.23-1.54-0.47-2.53-0.7-2.96c-0.3-0.54-0.79-0.97-1.47-1.28c-0.68-0.31-1.73-0.47-3.15-0.47h-7.44v10.44
			c0,1.4,0.07,2.25,0.2,2.56c0.13,0.3,0.37,0.54,0.7,0.72s0.97,0.27,1.9,0.27h5.74c1.92,0,3.31-0.12,4.17-0.37
			c0.87-0.25,1.7-0.74,2.5-1.47c1.03-0.96,2.09-2.42,3.17-4.37h1l-2.92,7.94h-26.1v-0.86h1.2c0.8,0,1.56-0.18,2.27-0.54
			c0.53-0.25,0.9-0.62,1.09-1.12s0.29-1.52,0.29-3.06v-20.57c0-2.01-0.22-3.25-0.65-3.71c-0.6-0.62-1.6-0.93-3-0.93h-1.2v-0.86h26.1
			l0.38,6.93h-0.97c-0.35-1.67-0.74-2.81-1.16-3.43s-1.05-1.1-1.89-1.42c-0.67-0.23-1.84-0.35-3.52-0.35h-9.3V166.06z"/>
		<path class="st1" d="M837.13,163.61v10.95h-0.92c-0.3-2.1-0.84-3.77-1.61-5.02s-1.88-2.23-3.31-2.97c-1.43-0.73-2.91-1.1-4.45-1.1
			c-1.73,0-3.16,0.49-4.3,1.48c-1.13,0.99-1.7,2.11-1.7,3.37c0,0.97,0.36,1.84,1.07,2.64c1.03,1.17,3.49,2.72,7.37,4.67
			c3.16,1.59,5.32,2.81,6.48,3.65c1.16,0.85,2.05,1.85,2.67,3s0.94,2.36,0.94,3.62c0,2.4-1,4.46-2.99,6.2s-4.55,2.6-7.68,2.6
			c-0.98,0-1.91-0.07-2.77-0.21c-0.52-0.08-1.59-0.36-3.21-0.85s-2.65-0.74-3.08-0.74c-0.42,0-0.75,0.12-0.99,0.35
			s-0.42,0.72-0.54,1.45h-0.91v-10.86h0.92c0.43,2.27,1.02,3.97,1.75,5.1s1.85,2.07,3.36,2.81s3.16,1.12,4.96,1.12
			c2.08,0,3.73-0.51,4.93-1.54c1.21-1.03,1.81-2.24,1.81-3.64c0-0.78-0.23-1.56-0.69-2.36s-1.17-1.53-2.14-2.22
			c-0.65-0.47-2.42-1.46-5.32-2.98s-4.96-2.73-6.18-3.63c-1.22-0.9-2.15-1.9-2.79-2.99c-0.63-1.09-0.95-2.29-0.95-3.6
			c0-2.27,0.93-4.23,2.8-5.87c1.86-1.64,4.24-2.46,7.12-2.46c1.8,0,3.71,0.41,5.72,1.24c0.93,0.39,1.59,0.58,1.97,0.58
			c0.43,0,0.79-0.12,1.06-0.36s0.5-0.73,0.66-1.46h0.94V163.61z"/>
	</g>
	<g>
		<path class="st1" d="M343.79,223.98h10.34v0.86c-1.43,0.11-2.48,0.41-3.16,0.9c-0.68,0.49-1.75,1.97-3.19,4.45
			s-3.07,4.79-4.88,6.93c1.46,1.62,2.77,2.75,3.92,3.4c1.15,0.65,2.31,0.97,3.47,0.97c1.13,0,2.09-0.29,2.88-0.88
			s1.35-1.44,1.67-2.58l0.91,0.63c-0.61,2.19-1.58,3.81-2.93,4.86c-1.35,1.04-2.91,1.56-4.7,1.56c-1.35,0-2.71-0.35-4.1-1.04
			c-1.39-0.69-2.9-1.86-4.54-3.51c-2.04,1.71-3.87,2.9-5.5,3.56s-3.38,0.99-5.23,0.99c-2.71,0-4.86-0.68-6.45-2.05s-2.39-3-2.39-4.9
			c0-1.88,0.71-3.76,2.14-5.64s4.11-3.82,8.05-5.83c-0.77-1.62-1.3-2.95-1.58-3.98s-0.42-2.03-0.42-2.98c0-2.66,1.03-4.69,3.1-6.09
			c1.61-1.09,3.44-1.63,5.49-1.63c1.95,0,3.55,0.55,4.78,1.65c1.23,1.1,1.85,2.45,1.85,4.05c0,1.65-0.6,3.1-1.79,4.34
			c-1.19,1.25-3.3,2.61-6.32,4.08c2.08,3.52,4.26,6.74,6.53,9.67c2.89-3.27,4.33-6.02,4.33-8.26c0-0.72-0.25-1.35-0.74-1.92
			c-0.36-0.42-0.88-0.67-1.55-0.75L343.79,223.98L343.79,223.98z M338.2,239.18c-2.17-2.8-3.67-4.85-4.51-6.14
			c-0.84-1.29-1.76-2.89-2.76-4.81c-1.97,1.07-3.45,2.26-4.44,3.55s-1.49,2.69-1.49,4.2c0,1.67,0.57,3.13,1.7,4.39
			s2.66,1.89,4.58,1.89c1.03,0,2.03-0.19,2.99-0.58C335.24,241.29,336.55,240.46,338.2,239.18z M334.39,224.59
			c2.04-0.92,3.56-1.96,4.57-3.13s1.51-2.47,1.51-3.9c0-1.12-0.37-2.05-1.1-2.78c-0.73-0.73-1.64-1.1-2.72-1.1
			c-1.43,0-2.51,0.47-3.24,1.41s-1.1,1.86-1.1,2.77c0,0.76,0.14,1.61,0.42,2.56C333.02,221.36,333.57,222.75,334.39,224.59z"/>
		<path class="st1" d="M385.46,243.5v0.86h-14.31v-0.86h1.18c1.38,0,2.38-0.38,3-1.14c0.39-0.5,0.59-1.7,0.59-3.59v-20.45
			c0-1.6-0.11-2.66-0.32-3.18c-0.16-0.39-0.5-0.72-1.01-1c-0.72-0.37-1.48-0.56-2.27-0.56h-1.18v-0.86h14.31v0.86h-1.21
			c-1.36,0-2.36,0.38-2.98,1.14c-0.41,0.5-0.62,1.7-0.62,3.6v20.45c0,1.6,0.11,2.66,0.32,3.17c0.16,0.39,0.51,0.72,1.03,1
			c0.71,0.37,1.45,0.56,2.24,0.56L385.46,243.5L385.46,243.5z"/>
		<path class="st1" d="M386.03,212.71h9.06l20.41,23.74v-18.26c0-1.95-0.23-3.16-0.69-3.64c-0.61-0.65-1.57-0.98-2.88-0.98h-1.16
			v-0.86h11.62v0.86h-1.18c-1.41,0-2.41,0.4-3,1.21c-0.36,0.5-0.54,1.63-0.54,3.41v26.68h-0.89l-22.01-25.49v19.49
			c0,1.95,0.22,3.16,0.67,3.64c0.62,0.65,1.58,0.98,2.88,0.98h1.18v0.86h-11.62v-0.86h1.16c1.43,0,2.44-0.4,3.03-1.21
			c0.36-0.5,0.54-1.63,0.54-3.41v-22.01c-0.97-1.07-1.7-1.78-2.2-2.12c-0.5-0.34-1.24-0.66-2.2-0.96c-0.48-0.14-1.2-0.21-2.17-0.21
			L386.03,212.71L386.03,212.71z"/>
		<path class="st1" d="M446.24,211.98v10.95h-0.91c-0.3-2.1-0.83-3.77-1.59-5.02s-1.85-2.23-3.26-2.96s-2.87-1.1-4.38-1.1
			c-1.71,0-3.12,0.49-4.24,1.48s-1.67,2.11-1.67,3.37c0,0.96,0.35,1.84,1.06,2.64c1.02,1.17,3.44,2.72,7.26,4.67
			c3.12,1.59,5.25,2.81,6.39,3.65c1.14,0.85,2.02,1.85,2.63,3c0.62,1.15,0.92,2.36,0.92,3.62c0,2.4-0.98,4.46-2.94,6.2
			s-4.49,2.6-7.57,2.6c-0.97,0-1.88-0.07-2.73-0.21c-0.51-0.08-1.56-0.36-3.16-0.85s-2.61-0.74-3.04-0.74
			c-0.41,0-0.74,0.12-0.97,0.35c-0.24,0.23-0.42,0.72-0.53,1.45h-0.91v-10.86h0.91c0.43,2.27,1,3.97,1.72,5.1s1.83,2.07,3.31,2.81
			s3.12,1.12,4.89,1.12c2.05,0,3.67-0.51,4.86-1.54s1.79-2.24,1.79-3.64c0-0.78-0.23-1.56-0.68-2.36c-0.45-0.79-1.15-1.53-2.11-2.22
			c-0.64-0.47-2.39-1.46-5.25-2.98c-2.86-1.52-4.89-2.73-6.09-3.63c-1.21-0.9-2.12-1.9-2.75-2.99c-0.62-1.09-0.94-2.29-0.94-3.59
			c0-2.27,0.92-4.23,2.76-5.87s4.18-2.46,7.02-2.46c1.77,0,3.65,0.41,5.64,1.24c0.92,0.39,1.57,0.58,1.95,0.58
			c0.43,0,0.78-0.12,1.05-0.36c0.27-0.24,0.49-0.73,0.65-1.46h0.91V211.98z"/>
		<path class="st1" d="M475.22,213.57v-0.86h11.82v0.86h-1.26c-1.31,0-2.32,0.52-3.03,1.56c-0.34,0.48-0.52,1.6-0.52,3.36v12.84
			c0,3.18-0.33,5.64-1,7.39s-1.97,3.25-3.92,4.51c-1.95,1.25-4.59,1.88-7.94,1.88c-3.64,0-6.41-0.6-8.3-1.8s-3.23-2.81-4.01-4.83
			c-0.53-1.39-0.79-3.98-0.79-7.8v-12.37c0-1.95-0.28-3.22-0.85-3.83c-0.57-0.61-1.48-0.91-2.75-0.91h-1.26v-0.86h14.43v0.86h-1.28
			c-1.38,0-2.36,0.41-2.96,1.24c-0.41,0.56-0.62,1.73-0.62,3.5v13.8c0,1.23,0.12,2.64,0.36,4.23c0.24,1.59,0.67,2.83,1.29,3.71
			c0.62,0.89,1.52,1.62,2.7,2.2c1.17,0.58,2.61,0.86,4.32,0.86c2.18,0,4.14-0.45,5.86-1.35c1.72-0.9,2.9-2.06,3.53-3.47
			s0.95-3.79,0.95-7.16v-12.82c0-1.98-0.23-3.21-0.69-3.71c-0.64-0.68-1.59-1.03-2.86-1.03L475.22,213.57L475.22,213.57z"/>
		<path class="st1" d="M521.66,244.36h-8.91l-11.3-14.8c-0.84,0.03-1.52,0.05-2.04,0.05c-0.21,0-0.44,0-0.69-0.01
			s-0.5-0.02-0.76-0.04v9.2c0,1.99,0.23,3.23,0.69,3.71c0.62,0.68,1.56,1.03,2.81,1.03h1.3v0.86h-14.31v-0.86h1.26
			c1.41,0,2.42-0.44,3.03-1.31c0.34-0.48,0.52-1.63,0.52-3.43v-20.45c0-1.99-0.23-3.23-0.69-3.71c-0.64-0.68-1.59-1.03-2.86-1.03
			h-1.26v-0.86h12.16c3.55,0,6.16,0.25,7.84,0.74c1.68,0.49,3.11,1.39,4.28,2.71c1.17,1.32,1.76,2.88,1.76,4.7
			c0,1.95-0.67,3.63-2.01,5.07c-1.34,1.43-3.41,2.44-6.22,3.04l6.9,9.08c1.58,2.09,2.93,3.47,4.06,4.16s2.61,1.12,4.43,1.31
			L521.66,244.36L521.66,244.36z M497.95,228.09c0.31,0,0.58,0,0.81,0.01s0.42,0.01,0.57,0.01c3.18,0,5.59-0.65,7.2-1.96
			s2.43-2.97,2.43-5c0-1.98-0.65-3.58-1.96-4.82s-3.03-1.86-5.18-1.86c-0.95,0-2.24,0.15-3.87,0.44V228.09z"/>
		<path class="st1" d="M544.29,233.76h-12.93l-2.27,5c-0.56,1.23-0.84,2.15-0.84,2.75c0,0.48,0.24,0.91,0.73,1.27
			c0.48,0.37,1.53,0.6,3.14,0.71v0.86H521.6v-0.86c1.4-0.23,2.3-0.54,2.71-0.91c0.84-0.75,1.76-2.26,2.78-4.55l11.75-26.05h0.86
			l11.62,26.33c0.94,2.12,1.79,3.49,2.55,4.12s1.83,0.98,3.19,1.06v0.86H543.9v-0.86c1.33-0.06,2.23-0.27,2.7-0.63
			c0.47-0.36,0.7-0.79,0.7-1.31c0-0.68-0.33-1.77-0.99-3.25L544.29,233.76z M543.6,232.04l-5.66-12.79l-5.81,12.79H543.6z"/>
		<path class="st1" d="M556.98,212.71h9.06l20.41,23.74v-18.26c0-1.95-0.23-3.16-0.69-3.64c-0.61-0.65-1.57-0.98-2.88-0.98h-1.16
			v-0.86h11.62v0.86h-1.18c-1.41,0-2.41,0.4-3,1.21c-0.36,0.5-0.54,1.63-0.54,3.41v26.68h-0.89l-22.01-25.49v19.49
			c0,1.95,0.22,3.16,0.67,3.64c0.62,0.65,1.58,0.98,2.88,0.98h1.18v0.86h-11.62v-0.86h1.16c1.43,0,2.44-0.4,3.03-1.21
			c0.36-0.5,0.54-1.63,0.54-3.41v-22.01c-0.97-1.07-1.7-1.78-2.2-2.12c-0.5-0.34-1.24-0.66-2.2-0.96c-0.48-0.14-1.2-0.21-2.17-0.21
			L556.98,212.71L556.98,212.71z"/>
		<path class="st1" d="M624.42,211.98l0.76,10.76h-0.76c-1.02-3.22-2.47-5.54-4.36-6.96s-4.15-2.12-6.8-2.12
			c-2.22,0-4.22,0.53-6.01,1.6c-1.79,1.07-3.2,2.77-4.22,5.1c-1.03,2.33-1.54,5.24-1.54,8.71c0,2.86,0.48,5.35,1.45,7.45
			c0.97,2.1,2.43,3.71,4.37,4.83c1.95,1.12,4.17,1.68,6.66,1.68c2.17,0,4.08-0.44,5.74-1.32s3.48-2.63,5.47-5.24l0.76,0.47
			c-1.67,2.82-3.63,4.88-5.86,6.19s-4.88,1.96-7.95,1.96c-5.53,0-9.82-1.95-12.85-5.84c-2.27-2.9-3.4-6.3-3.4-10.23
			c0-3.16,0.75-6.06,2.24-8.71s3.55-4.7,6.17-6.15c2.62-1.46,5.48-2.18,8.58-2.18c2.41,0,4.79,0.56,7.14,1.68
			c0.69,0.34,1.18,0.51,1.48,0.51c0.44,0,0.83-0.15,1.16-0.44c0.43-0.42,0.73-1,0.91-1.75L624.42,211.98L624.42,211.98z"/>
		<path class="st1" d="M638.24,214.43v12.51h7.34c1.9,0,3.18-0.27,3.82-0.82c0.85-0.72,1.33-1.98,1.43-3.78h0.91v11.02h-0.91
			c-0.23-1.54-0.46-2.53-0.69-2.96c-0.3-0.54-0.78-0.97-1.45-1.28c-0.67-0.31-1.71-0.47-3.1-0.47h-7.34v10.44
			c0,1.4,0.07,2.25,0.2,2.56c0.13,0.3,0.36,0.54,0.69,0.72s0.95,0.27,1.87,0.27h5.66c1.89,0,3.26-0.12,4.11-0.37
			s1.67-0.74,2.46-1.47c1.02-0.96,2.06-2.42,3.13-4.37h0.98l-2.88,7.94h-25.73v-0.86h1.18c0.79,0,1.54-0.18,2.24-0.54
			c0.53-0.25,0.88-0.62,1.07-1.12s0.28-1.52,0.28-3.06v-20.57c0-2.01-0.21-3.25-0.64-3.71c-0.59-0.62-1.58-0.93-2.96-0.93h-1.18
			v-0.86h25.73l0.37,6.93h-0.96c-0.34-1.67-0.73-2.81-1.15-3.43c-0.42-0.62-1.04-1.1-1.86-1.42c-0.66-0.23-1.81-0.35-3.47-0.35
			h-9.15V214.43z"/>
		<path class="st1" d="M702.07,211.98l0.86,9.99h-0.86c-0.87-2.49-2-4.37-3.37-5.63c-1.99-1.82-4.54-2.73-7.66-2.73
			c-4.25,0-7.49,1.59-9.7,4.79c-1.86,2.69-2.78,5.9-2.78,9.62c0,3.02,0.62,5.77,1.85,8.26s2.84,4.32,4.84,5.47
			c1.99,1.16,4.04,1.74,6.14,1.74c1.23,0,2.42-0.15,3.57-0.44s2.26-0.73,3.33-1.31v-9.15c0-1.59-0.13-2.63-0.38-3.12
			s-0.65-0.86-1.18-1.12s-1.47-0.38-2.82-0.38v-0.89h12.93v0.89h-0.64c-1.28,0-2.16,0.41-2.63,1.21c-0.33,0.58-0.49,1.71-0.49,3.41
			v9.7c-1.89,0.97-3.75,1.67-5.59,2.12s-3.88,0.68-6.13,0.68c-6.45,0-11.35-1.96-14.7-5.88c-2.51-2.94-3.77-6.33-3.77-10.18
			c0-2.79,0.71-5.46,2.12-8.01c1.67-3.04,3.97-5.37,6.9-7c2.45-1.35,5.33-2.03,8.67-2.03c1.21,0,2.32,0.09,3.31,0.28
			s2.4,0.6,4.22,1.24c0.92,0.33,1.54,0.49,1.85,0.49s0.58-0.14,0.8-0.41s0.36-0.81,0.41-1.6h0.9V211.98z"/>
		<path class="st1" d="M741.62,244.36h-8.91l-11.3-14.8c-0.84,0.03-1.52,0.05-2.04,0.05c-0.21,0-0.44,0-0.69-0.01
			s-0.5-0.02-0.76-0.04v9.2c0,1.99,0.23,3.23,0.69,3.71c0.62,0.68,1.56,1.03,2.81,1.03h1.3v0.86h-14.31v-0.86h1.26
			c1.41,0,2.42-0.44,3.03-1.31c0.34-0.48,0.52-1.63,0.52-3.43v-20.45c0-1.99-0.23-3.23-0.69-3.71c-0.64-0.68-1.59-1.03-2.86-1.03
			h-1.26v-0.86h12.16c3.55,0,6.16,0.25,7.84,0.74c1.68,0.49,3.11,1.39,4.28,2.71s1.76,2.88,1.76,4.7c0,1.95-0.67,3.63-2.01,5.07
			c-1.34,1.43-3.41,2.44-6.22,3.04l6.9,9.08c1.58,2.09,2.93,3.47,4.06,4.16s2.61,1.12,4.43,1.31L741.62,244.36L741.62,244.36z
			 M717.9,228.09c0.31,0,0.58,0,0.81,0.01c0.23,0.01,0.42,0.01,0.57,0.01c3.18,0,5.59-0.65,7.2-1.96s2.43-2.97,2.43-5
			c0-1.98-0.65-3.58-1.96-4.82s-3.03-1.86-5.18-1.86c-0.95,0-2.24,0.15-3.87,0.44V228.09z"/>
		<path class="st1" d="M759.62,211.98c4.33,0,8.09,1.56,11.27,4.68s4.77,7.02,4.77,11.68c0,4.81-1.6,8.8-4.8,11.98
			c-3.2,3.17-7.08,4.76-11.62,4.76c-4.6,0-8.46-1.55-11.59-4.65c-3.13-3.1-4.69-7.11-4.69-12.02c0-5.03,1.81-9.13,5.42-12.3
			C751.5,213.36,755.25,211.98,759.62,211.98z M759.15,213.69c-2.99,0-5.38,1.05-7.19,3.15c-2.25,2.61-3.37,6.44-3.37,11.49
			c0,5.17,1.17,9.14,3.5,11.93c1.79,2.12,4.15,3.17,7.09,3.17c3.14,0,5.73-1.16,7.77-3.48s3.07-5.98,3.07-10.97
			c0-5.42-1.12-9.46-3.37-12.12C764.83,214.75,762.33,213.69,759.15,213.69z"/>
		<path class="st1" d="M801.65,213.57v-0.86h11.82v0.86h-1.26c-1.31,0-2.32,0.52-3.03,1.56c-0.34,0.48-0.52,1.6-0.52,3.36v12.84
			c0,3.18-0.33,5.64-1,7.39s-1.97,3.25-3.92,4.51c-1.95,1.25-4.59,1.88-7.94,1.88c-3.64,0-6.41-0.6-8.3-1.8s-3.23-2.81-4.01-4.83
			c-0.53-1.39-0.79-3.98-0.79-7.8v-12.37c0-1.95-0.28-3.22-0.85-3.83c-0.57-0.61-1.48-0.91-2.75-0.91h-1.26v-0.86h14.43v0.86h-1.28
			c-1.38,0-2.36,0.41-2.96,1.24c-0.41,0.56-0.62,1.73-0.62,3.5v13.8c0,1.23,0.12,2.64,0.36,4.23c0.24,1.59,0.67,2.83,1.29,3.71
			c0.62,0.89,1.52,1.62,2.7,2.2c1.17,0.58,2.61,0.86,4.32,0.86c2.18,0,4.14-0.45,5.86-1.35c1.72-0.9,2.9-2.06,3.53-3.47
			s0.95-3.79,0.95-7.16v-12.82c0-1.98-0.23-3.21-0.69-3.71c-0.64-0.68-1.59-1.03-2.86-1.03L801.65,213.57L801.65,213.57z"/>
		<path class="st1" d="M824.36,229.54v9.22c0,1.99,0.23,3.23,0.69,3.71c0.62,0.68,1.57,1.03,2.83,1.03h1.28v0.86h-14.31v-0.86h1.26
			c1.41,0,2.42-0.44,3.03-1.31c0.33-0.48,0.49-1.63,0.49-3.43v-20.45c0-1.99-0.22-3.23-0.67-3.71c-0.64-0.68-1.59-1.03-2.86-1.03
			h-1.26v-0.86h12.24c2.99,0,5.34,0.29,7.07,0.88c1.72,0.58,3.18,1.57,4.36,2.95c1.18,1.39,1.77,3.03,1.77,4.93
			c0,2.58-0.9,4.68-2.7,6.3c-1.8,1.62-4.34,2.43-7.62,2.43c-0.8,0-1.67-0.05-2.61-0.16C826.42,229.92,825.42,229.76,824.36,229.54z
			 M824.36,228.21c0.87,0.16,1.64,0.27,2.31,0.35c0.67,0.08,1.25,0.12,1.72,0.12c1.71,0,3.18-0.63,4.42-1.88s1.86-2.88,1.86-4.87
			c0-1.37-0.29-2.64-0.89-3.82c-0.59-1.17-1.43-2.05-2.51-2.64c-1.08-0.58-2.32-0.88-3.69-0.88c-0.84,0-1.91,0.15-3.23,0.44
			L824.36,228.21L824.36,228.21z"/>
	</g>
	<path class="st0" d="M277.22,139.37c-2.03,40.84-16.38,71.25-38.46,94.83c-23.79,25.4-55.59,49.07-105.99,46
		C62.73,275.95,5.95,219.74,0.51,152.51c-3.81-47.1,14.12-84.49,38.46-109.86C61.7,18.97,94.39-3.26,140.27,0.4
		c45.58,3.64,81.09,40.68,81.6,86.38c0.51,45.02-30.42,86.99-69.4,97.65c-34.08,9.32-70.61-11.01-72.23-45.06
		c-2-41.77,49.44-64.28,75.98-28.17c28.98-18.43,22.3-69.08-4.69-82.63c-20.48-10.28-44.08-4.43-59.09,4.7
		C40.85,64.6,41.84,156,82.12,196.64c15.01,15.14,41.21,29.54,65.66,31.93C217.01,235.32,255.78,192.53,277.22,139.37z"/>
</g>
</svg>
